<svg xmlns="http://www.w3.org/2000/svg" viewBox="0 0 900 675" role="img" aria-label="Kebab burger render">
  <defs>
    <linearGradient id="bg" x1="0" x2="1" y1="0" y2="1">
      <stop offset="0" stop-color="#ffffff"/>
      <stop offset="1" stop-color="#eef6f0"/>
    </linearGradient>
    <filter id="shadow" x="-20%" y="-20%" width="140%" height="140%">
      <feDropShadow dx="0" dy="22" stdDeviation="22" flood-color="#171717" flood-opacity="0.2"/>
    </filter>
  </defs>
  <rect width="900" height="675" fill="url(#bg)"/>
  <ellipse cx="455" cy="532" rx="270" ry="45" fill="#171717" opacity="0.1"/>
  <g filter="url(#shadow)">
    <path d="M232 299c18-88 109-143 220-143s202 55 220 143z" fill="#d9983a"/>
    <path d="M226 377h452c-18 65-101 104-226 104s-208-39-226-104z" fill="#b86b2f"/>
    <path d="M258 354c105-50 222-50 349 0" stroke="#16844c" stroke-width="30" stroke-linecap="round"/>
    <path d="M290 316c92-30 199-30 321 0" stroke="#d9232d" stroke-width="26" stroke-linecap="round"/>
    <path d="M280 340c112-21 227-17 344 12" stroke="#7b291d" stroke-width="34" stroke-linecap="round"/>
    <path d="M268 382h364" stroke="#f5c542" stroke-width="20" stroke-linecap="round"/>
  </g>
</svg>
