<svg xmlns="http://www.w3.org/2000/svg" viewBox="0 0 320 320" role="img" aria-label="Burnt doner">
  <defs>
    <filter id="shadow" x="-30%" y="-30%" width="160%" height="160%">
      <feDropShadow dx="0" dy="16" stdDeviation="14" flood-color="#000000" flood-opacity="0.28"/>
    </filter>
  </defs>
  <g filter="url(#shadow)">
    <path d="M93 76c43-41 117-38 153 7 49 61-1 162-91 176-54 8-104-19-126-72-17-41 3-85 64-111z" fill="#2a211c"/>
    <path d="M80 120c52-19 104-14 155 15" stroke="#4a3930" stroke-width="26" stroke-linecap="round"/>
    <path d="M78 171c55-11 105-1 149 30" stroke="#6b201b" stroke-width="22" stroke-linecap="round"/>
    <path d="M112 91c31 1 61 11 90 29" stroke="#111111" stroke-width="18" stroke-linecap="round"/>
    <path d="M82 248 232 76" stroke="#cf3038" stroke-width="22" stroke-linecap="round"/>
    <path d="M238 248 88 76" stroke="#cf3038" stroke-width="22" stroke-linecap="round"/>
  </g>
</svg>
