<svg xmlns="http://www.w3.org/2000/svg" viewBox="0 0 900 675" role="img" aria-label="Doner product render">
  <defs>
    <linearGradient id="bg" x1="0" x2="1" y1="0" y2="1">
      <stop offset="0" stop-color="#ffffff"/>
      <stop offset="1" stop-color="#eef6f0"/>
    </linearGradient>
    <radialGradient id="plate" cx="50%" cy="42%" r="60%">
      <stop offset="0" stop-color="#ffffff"/>
      <stop offset="1" stop-color="#dde0d9"/>
    </radialGradient>
    <filter id="shadow" x="-20%" y="-20%" width="140%" height="140%">
      <feDropShadow dx="0" dy="24" stdDeviation="22" flood-color="#1c1c1c" flood-opacity="0.22"/>
    </filter>
  </defs>
  <rect width="900" height="675" fill="url(#bg)"/>
  <ellipse cx="450" cy="504" rx="282" ry="52" fill="#1d1d1b" opacity="0.1"/>
  <ellipse cx="450" cy="362" rx="290" ry="202" fill="url(#plate)" filter="url(#shadow)"/>
  <ellipse cx="450" cy="350" rx="224" ry="146" fill="#ffffff" stroke="#e2e2dc" stroke-width="8"/>
  <g transform="translate(318 200)">
    <path d="M24 120c35-75 105-119 196-126 39-3 77 21 91 58 29 80-29 177-123 205-78 23-145-26-164-137z" fill="#8f2e21"/>
    <path d="M52 126c31-51 86-82 154-88 29-2 55 14 65 39 21 55-25 121-94 142-55 17-105-18-125-93z" fill="#d45b35"/>
    <path d="M73 85c55 1 105 18 149 52" fill="none" stroke="#f39b56" stroke-width="18" stroke-linecap="round" opacity="0.85"/>
    <path d="M51 146c65-3 121 14 169 51" fill="none" stroke="#6e2119" stroke-width="16" stroke-linecap="round" opacity="0.65"/>
  </g>
  <g>
    <path d="M236 422c68-28 138-24 211 12" stroke="#1b914e" stroke-width="26" stroke-linecap="round"/>
    <path d="M517 430c47-36 95-45 145-26" stroke="#1b914e" stroke-width="24" stroke-linecap="round"/>
    <path d="M258 472c103-27 213-25 330 7" stroke="#f1c941" stroke-width="24" stroke-linecap="round"/>
    <circle cx="613" cy="362" r="32" fill="#d4202a"/>
    <circle cx="661" cy="385" r="24" fill="#e84d43"/>
  </g>
</svg>
