<svg xmlns="http://www.w3.org/2000/svg" viewBox="0 0 900 675" role="img" aria-label="Ayran product render">
  <defs>
    <linearGradient id="bg" x1="0" x2="1" y1="0" y2="1">
      <stop offset="0" stop-color="#ffffff"/>
      <stop offset="1" stop-color="#eef6f0"/>
    </linearGradient>
    <linearGradient id="glass" x1="20%" x2="80%" y1="10%" y2="90%">
      <stop offset="0" stop-color="#ffffff" stop-opacity="0.95"/>
      <stop offset="55%" stop-color="#dfeee8" stop-opacity="0.9"/>
      <stop offset="100%" stop-color="#b7d8cf" stop-opacity="0.9"/>
    </linearGradient>
    <filter id="shadow" x="-20%" y="-20%" width="140%" height="140%">
      <feDropShadow dx="0" dy="24" stdDeviation="22" flood-color="#1c1c1c" flood-opacity="0.18"/>
    </filter>
  </defs>
  <rect width="900" height="675" fill="url(#bg)"/>
  <ellipse cx="450" cy="548" rx="180" ry="38" fill="#1d1d1b" opacity="0.1"/>
  <g filter="url(#shadow)">
    <path d="M324 122h252l-41 404c-5 55-42 92-85 92s-80-37-85-92z" fill="url(#glass)" stroke="#d8e0dc" stroke-width="12"/>
    <path d="M356 274h188l-24 239c-4 41-32 69-70 69s-66-28-70-69z" fill="#f7fbf8"/>
    <path d="M346 250h208" stroke="#138a50" stroke-width="22" stroke-linecap="round"/>
    <path d="M391 171h118" stroke="#c9151b" stroke-width="24" stroke-linecap="round"/>
    <path d="M394 325c36-16 76-18 120-6" stroke="#d8ece4" stroke-width="20" stroke-linecap="round"/>
  </g>
</svg>
