<svg xmlns="http://www.w3.org/2000/svg" viewBox="0 0 900 675" role="img" aria-label="Iskender plate product render">
  <defs>
    <linearGradient id="bg" x1="0" x2="1" y1="0" y2="1">
      <stop offset="0" stop-color="#ffffff"/>
      <stop offset="1" stop-color="#f3f6f1"/>
    </linearGradient>
    <filter id="shadow" x="-20%" y="-20%" width="140%" height="140%">
      <feDropShadow dx="0" dy="24" stdDeviation="24" flood-color="#1c1c1c" flood-opacity="0.2"/>
    </filter>
  </defs>
  <rect width="900" height="675" fill="url(#bg)"/>
  <ellipse cx="450" cy="522" rx="315" ry="52" fill="#1d1d1b" opacity="0.1"/>
  <ellipse cx="450" cy="365" rx="318" ry="204" fill="#fefefe" filter="url(#shadow)" stroke="#deded7" stroke-width="9"/>
  <g transform="translate(220 198)">
    <path d="M54 224c71-65 160-103 266-114 68-7 130 26 161 84 18 33 9 73-22 95-90 64-204 76-343 35-47-14-72-63-62-100z" fill="#c94b2b"/>
    <path d="M103 211c78-40 164-59 258-56" stroke="#7e281d" stroke-width="24" stroke-linecap="round" opacity="0.58"/>
    <path d="M135 263c96-27 193-25 290 6" stroke="#f2a65a" stroke-width="18" stroke-linecap="round" opacity="0.88"/>
    <path d="M17 303c137 46 278 55 424 26" stroke="#d9232d" stroke-width="20" stroke-linecap="round" opacity="0.55"/>
  </g>
  <circle cx="620" cy="422" r="54" fill="#f7f7f1" stroke="#e4e1d8" stroke-width="6"/>
  <path d="M586 420c25-20 55-22 88-5" stroke="#1a8b4d" stroke-width="19" stroke-linecap="round"/>
  <path d="M264 456c91 31 185 35 282 12" stroke="#f1c941" stroke-width="26" stroke-linecap="round"/>
</svg>
