<svg xmlns="http://www.w3.org/2000/svg" viewBox="0 0 900 675" role="img" aria-label="Doner wrap product render">
  <defs>
    <linearGradient id="bg" x1="0" x2="1" y1="0" y2="1">
      <stop offset="0" stop-color="#ffffff"/>
      <stop offset="1" stop-color="#fff3e6"/>
    </linearGradient>
    <linearGradient id="bread" x1="18%" x2="83%" y1="16%" y2="86%">
      <stop offset="0" stop-color="#f7dc9d"/>
      <stop offset="50%" stop-color="#d9a850"/>
      <stop offset="100%" stop-color="#9e642c"/>
    </linearGradient>
    <filter id="shadow" x="-20%" y="-20%" width="140%" height="140%">
      <feDropShadow dx="0" dy="24" stdDeviation="24" flood-color="#1c1c1c" flood-opacity="0.22"/>
    </filter>
  </defs>
  <rect width="900" height="675" fill="url(#bg)"/>
  <ellipse cx="456" cy="526" rx="300" ry="55" fill="#1d1d1b" opacity="0.1"/>
  <g filter="url(#shadow)" transform="rotate(-14 450 338)">
    <path d="M235 458 501 153c31-36 86-40 122-9l48 42c37 33 41 89 8 127L413 618z" fill="url(#bread)" stroke="#8b5629" stroke-width="10"/>
    <path d="M401 273c53-45 108-62 166-50 28 6 48 31 47 60-2 65-52 111-150 139z" fill="#a83622"/>
    <path d="M370 351c72-34 136-42 193-23" stroke="#d85a34" stroke-width="24" stroke-linecap="round"/>
    <path d="M324 420c57-45 119-70 186-76" stroke="#16844c" stroke-width="25" stroke-linecap="round"/>
    <path d="M350 473c52-30 107-43 164-39" stroke="#f1c941" stroke-width="20" stroke-linecap="round"/>
    <path d="M440 189c37 18 68 43 95 76" stroke="#f7e0ac" stroke-width="16" stroke-linecap="round" opacity="0.6"/>
  </g>
</svg>
